<svg width="225" height="145" viewBox="0 0 225 145" fill="none" xmlns="http://www.w3.org/2000/svg">
<path d="M87.8366 119.603L87.29 120.44L87.8366 119.603ZM9.78399 1.08037C9.27611 0.863459 8.68853 1.09934 8.4716 1.60724L4.93664 9.88396C4.71972 10.3919 4.9556 10.9794 5.46351 11.1964C5.97141 11.4133 6.55898 11.1774 6.77591 10.6695L9.91809 3.31242L17.2752 6.4546C17.7831 6.67152 18.3707 6.43564 18.5876 5.92774C18.8045 5.41984 18.5686 4.83225 18.0607 4.61533L9.78399 1.08037ZM224.646 142.511C224.596 141.512 224.596 141.512 224.596 141.512C224.596 141.512 224.596 141.512 224.596 141.512C224.596 141.512 224.596 141.512 224.596 141.512C224.596 141.512 224.596 141.512 224.596 141.512C224.596 141.512 224.595 141.512 224.594 141.512C224.593 141.512 224.59 141.513 224.587 141.513C224.581 141.513 224.571 141.513 224.558 141.514C224.531 141.515 224.491 141.517 224.439 141.52C224.333 141.525 224.174 141.532 223.966 141.54C223.548 141.558 222.929 141.582 222.123 141.609L222.191 143.608C223.002 143.581 223.627 143.557 224.05 143.539C224.261 143.53 224.422 143.523 224.531 143.518C224.585 143.515 224.626 143.513 224.654 143.512C224.667 143.511 224.678 143.511 224.685 143.51C224.689 143.51 224.691 143.51 224.693 143.51C224.694 143.51 224.695 143.51 224.695 143.51C224.696 143.51 224.696 143.51 224.696 143.51C224.696 143.51 224.696 143.51 224.696 143.51C224.696 143.51 224.696 143.51 224.696 143.51C224.696 143.51 224.696 143.51 224.646 142.511ZM217.158 141.738C215.672 141.767 213.988 141.791 212.127 141.804L212.142 143.804C214.011 143.791 215.703 143.766 217.196 143.738L217.158 141.738ZM207.14 141.815C205.549 141.809 203.871 141.796 202.116 141.772L202.088 143.772C203.851 143.796 205.536 143.809 207.134 143.815L207.14 141.815ZM197.093 141.678C195.477 141.639 193.81 141.591 192.099 141.533L192.03 143.532C193.749 143.59 195.422 143.639 197.045 143.677L197.093 141.678ZM187.099 141.335C185.464 141.262 183.796 141.179 182.099 141.084L181.988 143.081C183.692 143.176 185.368 143.26 187.01 143.333L187.099 141.335ZM177.101 140.778C175.456 140.668 173.79 140.547 172.106 140.414L171.949 142.408C173.641 142.541 175.315 142.663 176.967 142.773L177.101 140.778ZM167.124 139.99C165.478 139.84 163.818 139.678 162.149 139.504L161.941 141.493C163.619 141.668 165.288 141.831 166.942 141.982L167.124 139.99ZM157.178 138.95C155.529 138.755 153.874 138.547 152.215 138.325L151.951 140.308C153.619 140.53 155.285 140.74 156.943 140.936L157.178 138.95ZM147.263 137.624C145.616 137.378 143.968 137.117 142.323 136.842L141.993 138.815C143.65 139.092 145.309 139.354 146.966 139.602L147.263 137.624ZM137.401 135.972C135.761 135.666 134.127 135.345 132.501 135.008L132.095 136.966C133.734 137.306 135.382 137.63 137.035 137.938L137.401 135.972ZM127.623 133.94C125.993 133.564 124.374 133.17 122.771 132.758L122.273 134.695C123.893 135.111 125.528 135.509 127.174 135.889L127.623 133.94ZM117.953 131.451C116.341 130.99 114.749 130.509 113.179 130.007L112.57 131.912C114.16 132.42 115.772 132.908 117.403 133.374L117.953 131.451ZM108.459 128.409C106.878 127.843 105.326 127.253 103.806 126.64L103.058 128.494C104.604 129.118 106.18 129.717 107.784 130.292L108.459 128.409ZM99.2391 124.677C97.7115 123.979 96.2238 123.252 94.7803 122.497L93.8535 124.27C95.3301 125.042 96.8494 125.784 98.407 126.496L99.2391 124.677ZM90.4616 120.071C89.7552 119.644 89.0622 119.209 88.3833 118.765L87.29 120.44C87.989 120.897 88.7015 121.344 89.427 121.782L90.4616 120.071ZM88.3833 118.765C87.6931 118.315 87.0042 117.847 86.3166 117.363L85.1652 118.999C85.8712 119.496 86.5795 119.976 87.29 120.44L88.3833 118.765ZM82.2862 114.328C80.9934 113.292 79.707 112.202 78.4279 111.062L77.0971 112.554C78.4005 113.716 79.7136 114.83 81.0354 115.889L82.2862 114.328ZM74.7269 107.606C73.5328 106.442 72.3463 105.237 71.1683 103.995L69.7176 105.372C70.9122 106.631 72.1168 107.854 73.3305 109.038L74.7269 107.606ZM67.7387 100.254C66.6256 98.9984 65.5212 97.7133 64.4262 96.4018L62.8909 97.6836C63.998 99.0095 65.1154 100.31 66.2423 101.581L67.7387 100.254ZM61.2204 92.4554C60.1747 91.1334 59.1385 89.7898 58.1127 88.4279L56.5151 89.6312C57.5501 91.0052 58.5958 92.3613 59.6518 93.6962L61.2204 92.4554ZM55.0956 84.3305C54.1077 82.9588 53.1303 81.5725 52.1641 80.1745L50.5188 81.3116C51.492 82.7198 52.4769 84.1167 53.4728 85.4994L55.0956 84.3305ZM49.3079 75.9612C48.3674 74.5474 47.4387 73.125 46.5224 71.6973L44.8392 72.7776C45.7612 74.2141 46.6959 75.6456 47.6426 77.0689L49.3079 75.9612ZM43.8035 67.3887C42.9049 65.9407 42.0195 64.4903 41.1479 63.0406L39.4338 64.0711C40.3101 65.5285 41.2004 66.987 42.1042 68.4433L43.8035 67.3887ZM38.5523 58.6573C37.6908 57.1804 36.8444 55.7077 36.0138 54.2423L34.2739 55.2286C35.1084 56.7008 35.9589 58.1808 36.8248 59.665L38.5523 58.6573ZM33.5296 49.7984C32.6997 48.2933 31.8877 46.7999 31.0942 45.322L29.3321 46.268C30.129 47.7523 30.9446 49.2522 31.7782 50.7641L33.5296 49.7984ZM28.7062 40.8158C27.9041 39.2825 27.1239 37.7711 26.3664 36.286L24.5848 37.1947C25.3453 38.6857 26.1286 40.2033 26.9341 41.7428L28.7062 40.8158ZM24.0743 31.7358C23.2965 30.1724 22.5473 28.6464 21.8277 27.1637L20.0284 28.037C20.7507 29.5253 21.5029 31.0572 22.2837 32.6266L24.0743 31.7358ZM19.6161 22.5495C18.8514 20.9338 18.129 19.386 17.4507 17.9156L15.6346 18.7533C16.3156 20.2295 17.0408 21.7833 17.8084 23.4051L19.6161 22.5495ZM15.3478 13.2961C14.5712 11.5669 13.8782 9.99664 13.2732 8.60838L11.4397 9.40736C12.0475 10.8021 12.7435 12.3791 13.5233 14.1155L15.3478 13.2961ZM11.2827 3.95924C10.9651 3.20214 10.7238 2.61809 10.5621 2.22386C10.4812 2.02675 10.4203 1.8771 10.3797 1.77699C10.3594 1.72695 10.3442 1.68928 10.3341 1.66428C10.329 1.65177 10.3253 1.64244 10.3228 1.63629C10.3216 1.63322 10.3206 1.63094 10.32 1.62946C10.3198 1.62873 10.3195 1.62819 10.3194 1.62786C10.3193 1.62769 10.3193 1.62758 10.3193 1.62751C10.3193 1.62748 10.3192 1.62745 10.3192 1.62745C10.3192 1.62745 10.3192 1.62745 10.3192 1.62745C10.3192 1.62745 10.3192 1.62746 9.39123 2.00001C8.46322 2.37256 8.46322 2.37257 8.46324 2.37259C8.46323 2.3726 8.46325 2.37263 8.46324 2.37264C8.46328 2.3727 8.46329 2.37274 8.46332 2.37281C8.46337 2.37295 8.46344 2.37313 8.46354 2.37336C8.46373 2.37384 8.46399 2.37451 8.46436 2.3754C8.46505 2.37713 8.46608 2.37969 8.46742 2.38304C8.47015 2.38976 8.47411 2.39965 8.47939 2.41272C8.48995 2.43887 8.50562 2.47766 8.5264 2.52886C8.56794 2.63126 8.62984 2.78326 8.71165 2.98275C8.87529 3.38175 9.11866 3.97077 9.43846 4.73301L11.2827 3.95924ZM87.8366 119.603L86.7434 121.278L87.8366 119.603ZM10.1768 0.160742C9.16097 -0.273108 7.9858 0.198659 7.55195 1.21446L0.482057 17.7679C0.0482092 18.7837 0.519976 19.9589 1.53578 20.3927C2.55158 20.8266 3.72675 20.3548 4.1606 19.339L10.445 4.62483L25.1591 10.9092C26.1749 11.343 27.3501 10.8713 27.7839 9.85547C28.2178 8.83965 27.746 7.66449 26.7302 7.23065L10.1768 0.160742ZM224.646 142.511C224.547 140.513 224.547 140.513 224.547 140.513C224.547 140.513 224.547 140.513 224.547 140.513C224.547 140.513 224.547 140.513 224.547 140.513C224.547 140.513 224.546 140.513 224.546 140.513C224.546 140.513 224.546 140.514 224.545 140.514C224.544 140.514 224.541 140.514 224.538 140.514C224.532 140.514 224.523 140.515 224.51 140.515C224.484 140.517 224.445 140.518 224.393 140.521C224.288 140.526 224.131 140.533 223.924 140.541C223.509 140.559 222.892 140.583 222.09 140.61L222.224 144.608C223.038 144.58 223.666 144.556 224.092 144.538C224.305 144.529 224.467 144.522 224.577 144.517C224.632 144.514 224.673 144.512 224.702 144.511C224.716 144.51 224.727 144.509 224.734 144.509C224.738 144.509 224.741 144.509 224.743 144.509C224.744 144.509 224.744 144.509 224.745 144.509C224.745 144.509 224.746 144.509 224.746 144.509C224.746 144.508 224.746 144.508 224.746 144.508C224.746 144.508 224.746 144.508 224.746 144.508C224.746 144.508 224.746 144.508 224.646 142.511ZM217.139 140.738C215.657 140.767 213.976 140.791 212.12 140.804L212.15 144.804C214.022 144.79 215.718 144.766 217.215 144.738L217.139 140.738ZM207.144 140.815C205.556 140.81 203.881 140.796 202.129 140.772L202.075 144.772C203.841 144.796 205.53 144.809 207.131 144.815L207.144 140.815ZM197.117 140.678C195.504 140.64 193.841 140.592 192.133 140.533L191.996 144.531C193.718 144.59 195.395 144.638 197.021 144.677L197.117 140.678ZM187.144 140.336C185.512 140.263 183.848 140.18 182.155 140.086L181.933 144.08C183.64 144.175 185.319 144.259 186.965 144.332L187.144 140.336ZM177.168 139.78C175.527 139.67 173.865 139.55 172.185 139.417L171.871 143.405C173.567 143.538 175.244 143.66 176.9 143.771L177.168 139.78ZM167.215 138.995C165.573 138.845 163.917 138.683 162.252 138.509L161.837 142.488C163.52 142.663 165.192 142.827 166.852 142.978L167.215 138.995ZM157.296 137.957C155.652 137.762 154.001 137.555 152.348 137.334L151.818 141.299C153.492 141.522 155.162 141.732 156.825 141.929L157.296 137.957ZM147.411 136.635C145.769 136.39 144.127 136.13 142.488 135.856L141.828 139.801C143.491 140.079 145.155 140.342 146.818 140.591L147.411 136.635ZM137.585 134.989C135.951 134.684 134.323 134.365 132.704 134.029L131.891 137.945C133.538 138.287 135.192 138.612 136.852 138.921L137.585 134.989ZM127.848 132.966C126.225 132.591 124.615 132.199 123.02 131.79L122.025 135.664C123.653 136.082 125.295 136.482 126.949 136.863L127.848 132.966ZM118.228 130.49C116.626 130.031 115.043 129.553 113.483 129.054L112.265 132.864C113.866 133.376 115.488 133.866 117.128 134.336L118.228 130.49ZM108.796 127.468C107.228 126.906 105.688 126.321 104.181 125.712L102.684 129.422C104.242 130.051 105.831 130.654 107.447 131.233L108.796 127.468ZM99.6551 123.768C98.1425 123.076 96.6707 122.357 95.2437 121.611L93.39 125.156C94.8832 125.937 96.4184 126.686 97.991 127.405L99.6551 123.768ZM90.9789 119.215C90.282 118.794 89.5988 118.365 88.9299 117.928L86.7434 121.278C87.4523 121.74 88.1747 122.194 88.9098 122.638L90.9789 119.215ZM88.9299 117.928C88.2499 117.484 87.5706 117.023 86.8923 116.546L84.5895 119.816C85.3048 120.32 86.0228 120.807 86.7434 121.278L88.9299 117.928ZM82.9115 113.548C81.6333 112.523 80.3603 111.444 79.0934 110.315L76.4316 113.301C77.7472 114.474 79.0737 115.598 80.4101 116.669L82.9115 113.548ZM75.4251 106.89C74.2408 105.735 73.0634 104.539 71.8937 103.307L68.9922 106.06C70.1952 107.328 71.4088 108.561 72.6323 109.754L75.4251 106.89ZM68.4869 99.5903C67.3808 98.3428 66.2828 97.0652 65.1938 95.7609L62.1233 98.3245C63.2364 99.6577 64.3602 100.965 65.4941 102.244L68.4869 99.5903ZM62.0047 91.835C60.9641 90.5195 59.9328 89.1822 58.9114 87.8262L55.7164 90.2328C56.7558 91.6128 57.8064 92.9752 58.8675 94.3166L62.0047 91.835ZM55.9071 83.7461C54.923 82.3799 53.9494 80.9988 52.9867 79.6059L49.6962 81.8802C50.6729 83.2934 51.6615 84.6957 52.6613 86.0839L55.9071 83.7461ZM50.1405 75.4074C49.2032 73.9982 48.2774 72.5805 47.3639 71.1572L43.9976 73.3177C44.9224 74.7587 45.8601 76.1947 46.81 77.6228L50.1405 75.4074ZM44.6532 66.8614C43.7571 65.4175 42.8742 63.9711 42.0049 62.5253L38.5768 64.5864C39.4554 66.0477 40.3481 67.5102 41.2545 68.9707L44.6532 66.8614ZM39.4161 58.1534C38.5567 56.6802 37.7124 55.2111 36.8838 53.7492L33.4039 55.7217C34.2404 57.1974 35.093 58.681 35.961 60.1689L39.4161 58.1534ZM34.4053 49.3156C33.5773 47.8138 32.767 46.3237 31.9753 44.849L28.4511 46.741C29.2496 48.2285 30.067 49.7317 30.9025 51.247L34.4053 49.3156ZM29.5923 40.3522C28.7918 38.8221 28.0132 37.3138 27.2572 35.8317L23.694 37.6491C24.4559 39.143 25.2409 40.6636 26.048 42.2064L29.5923 40.3522ZM24.9696 31.2904C24.1934 29.73 23.4456 28.207 22.7274 26.7271L19.1288 28.4736C19.8525 29.9648 20.606 31.4996 21.3883 33.072L24.9696 31.2904ZM20.52 22.1217C19.7568 20.5091 19.0357 18.9643 18.3587 17.4967L14.7266 19.1722C15.4088 20.6513 16.1355 22.208 16.9045 23.8329L20.52 22.1217ZM16.26 12.8865C15.485 11.1608 14.7935 9.59391 14.1899 8.20888L10.523 9.80686C11.1322 11.2048 11.8297 12.7853 12.6111 14.5251L16.26 12.8865ZM12.2048 3.57236C11.8883 2.81782 11.648 2.23625 11.4873 1.84441C11.4069 1.64849 11.3465 1.50001 11.3063 1.40106C11.2863 1.35159 11.2713 1.3145 11.2614 1.29004C11.2565 1.27783 11.2528 1.26877 11.2505 1.26289C11.2493 1.25996 11.2484 1.25783 11.2479 1.2565C11.2476 1.25583 11.2474 1.25536 11.2473 1.2551C11.2473 1.25497 11.2472 1.25488 11.2472 1.25486C11.2472 1.25484 11.2472 1.25484 11.2472 1.25485C11.2472 1.25485 11.2472 1.25486 11.2472 1.25487C11.2473 1.25489 11.2473 1.25491 9.39123 2.00001C7.53522 2.74511 7.53521 2.74513 7.53522 2.74516C7.53524 2.74519 7.53525 2.74522 7.53527 2.74525C7.53528 2.7453 7.5353 2.74537 7.53535 2.74547C7.53542 2.74564 7.5355 2.74585 7.53561 2.74613C7.53584 2.74667 7.53612 2.74741 7.53652 2.74836C7.53726 2.75024 7.53835 2.75294 7.53975 2.75643C7.54258 2.76342 7.54668 2.77361 7.55207 2.78696C7.56285 2.81366 7.57874 2.85302 7.59975 2.9048C7.64178 3.00835 7.70412 3.16151 7.78643 3.3622C7.95104 3.76357 8.19544 4.35507 8.51633 5.11989L12.2048 3.57236Z" fill="#8F00FF"/>
</svg>
