<svg width="226" height="146" viewBox="0 0 226 146" fill="none" xmlns="http://www.w3.org/2000/svg">
<path d="M137.81 25.4661L138.356 24.6287L137.81 25.4661ZM215.862 143.989C216.37 144.206 216.958 143.97 217.175 143.462L220.71 135.185C220.927 134.677 220.691 134.09 220.183 133.873C219.675 133.656 219.087 133.892 218.871 134.399L215.728 141.757L208.371 138.614C207.863 138.397 207.276 138.633 207.059 139.141C206.842 139.649 207.078 140.237 207.586 140.454L215.862 143.989ZM1.00018 2.55799C1.05007 3.55675 1.05006 3.55675 1.05005 3.55675C1.05006 3.55675 1.05005 3.55675 1.05005 3.55675C1.05006 3.55675 1.05008 3.55675 1.05012 3.55674C1.05018 3.55674 1.0503 3.55673 1.05048 3.55673C1.05082 3.55671 1.05138 3.55668 1.05216 3.55664C1.0537 3.55657 1.05609 3.55645 1.05933 3.55629C1.0658 3.55597 1.07565 3.5555 1.08885 3.55486C1.11524 3.55359 1.15502 3.5517 1.20792 3.54927C1.31374 3.54439 1.47206 3.5373 1.68086 3.52851C2.09847 3.51092 2.71798 3.48655 3.5231 3.45949L3.45592 1.46061C2.64492 1.48787 2.01976 1.51247 1.59673 1.53028C1.38522 1.53918 1.22423 1.54639 1.11581 1.55139C1.0616 1.55389 1.02053 1.55583 0.992857 1.55717C0.979022 1.55783 0.968534 1.55834 0.961426 1.55869C0.957872 1.55886 0.955164 1.559 0.953304 1.55909C0.952375 1.55913 0.951659 1.55917 0.951154 1.55919C0.950901 1.55921 0.950702 1.55922 0.950557 1.55922C0.950482 1.55923 0.950423 1.55923 0.950377 1.55923C0.950353 1.55924 0.95033 1.55923 0.950318 1.55924C0.950297 1.55924 0.950279 1.55924 1.00018 2.55799ZM8.48846 3.33071C9.97442 3.30227 11.6587 3.27832 13.519 3.26451L13.5042 1.26456C11.6357 1.27843 9.94357 1.30249 8.45018 1.33108L8.48846 3.33071ZM18.5062 3.25432C20.097 3.25948 21.775 3.27285 23.531 3.29677L23.5582 1.29696C21.7951 1.27294 20.1102 1.25951 18.5127 1.25433L18.5062 3.25432ZM28.5536 3.39102C30.1696 3.42966 31.8362 3.47755 33.5478 3.53615L33.6163 1.53732C31.8975 1.47848 30.224 1.43038 28.6014 1.39159L28.5536 3.39102ZM38.5472 3.73357C40.1824 3.80682 41.8505 3.89013 43.5472 3.98461L43.6584 1.9877C41.9543 1.89281 40.2789 1.80914 38.6367 1.73558L38.5472 3.73357ZM48.5454 4.29102C50.1901 4.40121 51.8562 4.52223 53.5402 4.655L53.6974 2.66119C52.0053 2.52778 50.3314 2.40619 48.6791 2.29549L48.5454 4.29102ZM58.5222 5.07851C60.1688 5.22882 61.8284 5.39076 63.498 5.56517L63.7058 3.57599C62.0273 3.40065 60.3589 3.23786 58.704 3.08679L58.5222 5.07851ZM68.4683 6.11885C70.1172 6.31424 71.7725 6.52229 73.4311 6.74377L73.6958 4.76137C72.027 4.53853 70.3619 4.32925 68.7036 4.13275L68.4683 6.11885ZM78.3838 7.44469C80.0309 7.6913 81.6783 7.95182 83.3231 8.22699L83.6531 6.2544C81.9966 5.97728 80.3379 5.71498 78.68 5.46674L78.3838 7.44469ZM88.2451 9.09681C89.8852 9.40261 91.5197 9.72382 93.1456 10.0612L93.5519 8.1029C91.9122 7.76268 90.2645 7.43886 88.6117 7.13069L88.2451 9.09681ZM98.0231 11.129C99.6536 11.5053 101.272 11.899 102.876 12.3109L103.373 10.3738C101.753 9.95765 100.119 9.56009 98.4729 9.18026L98.0231 11.129ZM107.693 13.6175C109.305 14.0788 110.898 14.5601 112.468 15.062L113.077 13.157C111.486 12.6485 109.874 12.1614 108.244 11.6947L107.693 13.6175ZM117.188 16.6598C118.768 17.2262 120.32 17.8157 121.84 18.4292L122.589 16.5746C121.043 15.9506 119.466 15.3518 117.862 14.7771L117.188 16.6598ZM126.407 20.3915C127.935 21.0904 129.423 21.8168 130.866 22.5717L131.793 20.7994C130.316 20.0272 128.797 19.2854 127.239 18.5728L126.407 20.3915ZM135.185 24.9983C135.891 25.4253 136.584 25.8603 137.263 26.3035L138.356 24.6287C137.658 24.1725 136.945 23.7252 136.219 23.2867L135.185 24.9983ZM137.263 26.3035C137.953 26.754 138.642 27.2216 139.33 27.7057L140.481 26.0704C139.775 25.5733 139.067 25.0925 138.356 24.6287L137.263 26.3035ZM143.36 30.7408C144.653 31.7768 145.939 32.8672 147.219 34.0074L148.549 32.5145C147.246 31.3525 145.933 30.2394 144.611 29.1801L143.36 30.7408ZM150.92 37.4627C152.114 38.6274 153.3 39.8323 154.478 41.0738L155.929 39.6971C154.734 38.4381 153.53 37.2147 152.316 36.031L150.92 37.4627ZM157.908 44.8152C159.021 46.0705 160.125 47.3557 161.22 48.6672L162.756 47.3854C161.648 46.0594 160.531 44.7592 159.404 43.4883L157.908 44.8152ZM164.426 52.6136C165.472 53.9356 166.508 55.2791 167.534 56.6411L169.131 55.4378C168.096 54.0638 167.051 52.7077 165.995 51.3728L164.426 52.6136ZM170.551 60.7384C171.539 62.1101 172.516 63.4965 173.482 64.8945L175.128 63.7573C174.154 62.3492 173.17 60.9522 172.174 59.5696L170.551 60.7384ZM176.339 69.1077C177.279 70.5216 178.208 71.9439 179.124 73.3716L180.807 72.2914C179.885 70.8548 178.951 69.4234 178.004 68.0001L176.339 69.1077ZM181.843 77.6802C182.742 79.1283 183.627 80.5787 184.499 82.0284L186.213 80.9979C185.336 79.5404 184.446 78.082 183.542 76.6256L181.843 77.6802ZM187.094 86.4117C187.956 87.8885 188.802 89.3613 189.633 90.8266L191.373 89.8404C190.538 88.3681 189.688 86.8882 188.822 85.4039L187.094 86.4117ZM192.117 95.2706C192.947 96.7757 193.759 98.2691 194.552 99.747L196.314 98.801C195.518 97.3167 194.702 95.8167 193.868 94.3049L192.117 95.2706ZM196.94 104.253C197.742 105.786 198.523 107.298 199.28 108.783L201.062 107.874C200.301 106.383 199.518 104.866 198.712 103.326L196.94 104.253ZM201.572 113.333C202.35 114.897 203.099 116.423 203.819 117.905L205.618 117.032C204.896 115.544 204.144 114.012 203.363 112.442L201.572 113.333ZM206.03 122.519C206.795 124.135 207.517 125.683 208.196 127.153L210.012 126.316C209.331 124.839 208.606 123.286 207.838 121.664L206.03 122.519ZM210.299 131.773C211.075 133.502 211.768 135.072 212.373 136.461L214.207 135.662C213.599 134.267 212.903 132.69 212.123 130.954L210.299 131.773ZM214.364 141.11C214.681 141.867 214.923 142.451 215.084 142.845C215.165 143.042 215.226 143.192 215.267 143.292C215.287 143.342 215.302 143.38 215.312 143.405C215.317 143.417 215.321 143.427 215.324 143.433C215.325 143.436 215.326 143.438 215.326 143.44C215.327 143.44 215.327 143.441 215.327 143.441C215.327 143.441 215.327 143.441 215.327 143.441C215.327 143.441 215.327 143.442 215.327 143.442C215.327 143.442 215.327 143.442 215.327 143.442C215.327 143.442 215.327 143.442 216.255 143.069C217.183 142.696 217.183 142.696 217.183 142.696C217.183 142.696 217.183 142.696 217.183 142.696C217.183 142.696 217.183 142.696 217.183 142.696C217.183 142.696 217.183 142.696 217.183 142.696C217.183 142.695 217.182 142.694 217.182 142.694C217.181 142.692 217.18 142.689 217.179 142.686C217.176 142.679 217.172 142.669 217.167 142.656C217.157 142.63 217.141 142.591 217.12 142.54C217.079 142.438 217.017 142.286 216.935 142.086C216.771 141.687 216.528 141.098 216.208 140.336L214.364 141.11ZM137.81 25.4661L138.903 23.7913L137.81 25.4661ZM215.47 144.908C216.486 145.342 217.661 144.87 218.095 143.855L225.164 127.301C225.598 126.285 225.127 125.11 224.111 124.676C223.095 124.242 221.92 124.714 221.486 125.73L215.202 140.444L200.487 134.16C199.472 133.726 198.296 134.198 197.863 135.214C197.429 136.229 197.9 137.404 198.916 137.838L215.47 144.908ZM1.00018 2.55799C1.09997 4.5555 1.09995 4.5555 1.09992 4.5555C1.09992 4.55551 1.0999 4.55551 1.09989 4.55551C1.09988 4.55551 1.09988 4.5555 1.0999 4.5555C1.09992 4.5555 1.10001 4.5555 1.10014 4.55549C1.10041 4.55548 1.10089 4.55545 1.10158 4.55542C1.10297 4.55535 1.1052 4.55524 1.10828 4.55509C1.11444 4.55479 1.12397 4.55433 1.13685 4.55371C1.1626 4.55247 1.20173 4.55061 1.25398 4.54821C1.35849 4.54339 1.51548 4.53635 1.72293 4.52762C2.13782 4.51015 2.7545 4.48588 3.55669 4.45892L3.42233 0.461178C2.6084 0.488535 1.98041 0.513237 1.55467 0.531159C1.34179 0.540124 1.17948 0.547392 1.06975 0.55245C1.01489 0.554981 0.973176 0.556956 0.944862 0.558318C0.930705 0.558998 0.919898 0.559524 0.912476 0.559886C0.908763 0.560068 0.905896 0.56021 0.903879 0.56031C0.902871 0.560359 0.902075 0.560399 0.901491 0.560428C0.9012 0.560443 0.900961 0.560456 0.900777 0.560463C0.900683 0.56047 0.900604 0.560473 0.900538 0.560476C0.900506 0.560477 0.900466 0.560479 0.900449 0.560481C0.900414 0.560481 0.900381 0.560483 1.00018 2.55799ZM8.5076 4.33053C9.98985 4.30215 11.6702 4.27826 13.5265 4.26448L13.4968 0.26459C11.6242 0.278491 9.92814 0.302602 8.43104 0.331262L8.5076 4.33053ZM18.503 4.25431C20.0905 4.25946 21.765 4.27281 23.5174 4.29668L23.5718 0.29705C21.8051 0.272985 20.1167 0.259528 18.516 0.254335L18.503 4.25431ZM28.5297 4.39073C30.1424 4.42929 31.8056 4.47708 33.5136 4.53556L33.6505 0.537902C31.9282 0.478939 30.2512 0.430753 28.6254 0.391876L28.5297 4.39073ZM38.5024 4.73257C40.1342 4.80567 41.7987 4.8888 43.4916 4.98306L43.714 0.989249C42.0061 0.894149 40.3271 0.810297 38.6814 0.736581L38.5024 4.73257ZM48.4786 5.28878C50.1195 5.39872 51.7817 5.51946 53.4616 5.65191L53.776 1.66428C52.0799 1.53056 50.402 1.40868 48.746 1.29773L48.4786 5.28878ZM58.4313 6.07437C60.0737 6.2243 61.729 6.38582 63.3941 6.55976L63.8097 2.5814C62.1267 2.4056 60.454 2.24238 58.795 2.09093L58.4313 6.07437ZM68.3506 7.1119C69.9948 7.30673 71.6452 7.51417 73.2988 7.73497L73.8282 3.77017C72.1543 3.54665 70.4843 3.33675 68.8213 3.13969L68.3506 7.1119ZM78.2358 8.43366C79.8774 8.67947 81.5191 8.9391 83.1581 9.21328L83.8181 5.2681C82.1557 4.99001 80.4914 4.72681 78.8281 4.47776L78.2358 8.43366ZM88.0618 10.0799C89.6956 10.3845 91.3234 10.7044 92.9424 11.0403L93.7551 7.12376C92.1085 6.7821 90.4541 6.45698 88.795 6.14763L88.0618 10.0799ZM97.7983 12.1034C99.4211 12.478 101.032 12.8697 102.627 13.2794L103.622 9.4052C101.994 8.98696 100.351 8.58746 98.6978 8.20587L97.7983 12.1034ZM107.418 14.5789C109.021 15.0376 110.603 15.5158 112.163 16.0145L113.381 12.2045C111.781 11.6928 110.159 11.2027 108.519 10.7333L107.418 14.5789ZM116.85 17.6012C118.419 18.1634 119.959 18.7482 121.466 19.3565L122.963 15.6473C121.404 15.0181 119.815 14.4146 118.2 13.8357L116.85 17.6012ZM125.991 21.3009C127.504 21.9929 128.976 22.7116 130.403 23.4579L132.256 19.9133C130.763 19.1324 129.228 18.3829 127.656 17.6635L125.991 21.3009ZM134.668 25.8541C135.364 26.2753 136.048 26.7042 136.717 27.1409L138.903 23.7913C138.194 23.3286 137.472 22.8751 136.737 22.4308L134.668 25.8541ZM136.717 27.1409C137.397 27.5848 138.076 28.0458 138.754 28.5234L141.057 25.2527C140.342 24.7491 139.624 24.2617 138.903 23.7913L136.717 27.1409ZM142.735 31.5211C144.013 32.5455 145.286 33.6245 146.553 34.7539L149.215 31.7681C147.899 30.5952 146.573 29.4707 145.236 28.3998L142.735 31.5211ZM150.221 38.1786C151.406 39.3337 152.583 40.5295 153.753 41.7621L156.654 39.0088C155.451 37.7409 154.238 36.5083 153.014 35.3151L150.221 38.1786ZM157.16 45.4787C158.266 46.7262 159.364 48.0038 160.453 49.3081L163.523 46.7445C162.41 45.4113 161.286 44.1036 160.152 42.8249L157.16 45.4787ZM163.642 53.234C164.682 54.5495 165.714 55.8868 166.735 57.2427L169.93 54.8361C168.891 53.4562 167.84 52.0938 166.779 50.7524L163.642 53.234ZM169.739 61.3229C170.723 62.6891 171.697 64.0702 172.66 65.463L175.95 63.1888C174.974 61.7755 173.985 60.3733 172.985 58.9851L169.739 61.3229ZM175.506 69.6616C176.443 71.0707 177.369 72.4885 178.283 73.9118L181.649 71.7512C180.724 70.3103 179.786 68.8743 178.836 67.4462L175.506 69.6616ZM180.993 78.2075C181.889 79.6514 182.772 81.0978 183.642 82.5436L187.07 80.4826C186.191 79.0213 185.298 77.5588 184.392 76.0983L180.993 78.2075ZM186.23 86.9156C187.09 88.3887 187.934 89.8579 188.763 91.3197L192.243 89.3473C191.406 87.8715 190.554 86.388 189.686 84.9L186.23 86.9156ZM191.241 95.7534C192.069 97.2551 192.879 98.7452 193.671 100.22L197.195 98.3279C196.397 96.8405 195.579 95.3373 194.744 93.822L191.241 95.7534ZM196.054 104.717C196.855 106.247 197.633 107.755 198.389 109.237L201.953 107.42C201.191 105.926 200.406 104.405 199.598 102.863L196.054 104.717ZM200.677 113.779C201.453 115.339 202.201 116.862 202.919 118.342L206.518 116.595C205.794 115.104 205.04 113.569 204.258 111.997L200.677 113.779ZM205.126 122.947C205.89 124.56 206.611 126.105 207.288 127.572L210.92 125.897C210.238 124.418 209.511 122.861 208.742 121.236L205.126 122.947ZM209.386 132.183C210.161 133.908 210.853 135.475 211.457 136.86L215.124 135.262C214.514 133.864 213.817 132.284 213.035 130.544L209.386 132.183ZM213.442 141.497C213.758 142.251 213.999 142.833 214.159 143.225C214.24 143.42 214.3 143.569 214.34 143.668C214.36 143.717 214.375 143.754 214.385 143.779C214.39 143.791 214.394 143.8 214.396 143.806C214.397 143.809 214.398 143.811 214.399 143.812C214.399 143.813 214.399 143.814 214.399 143.814C214.399 143.814 214.399 143.814 214.399 143.814C214.399 143.814 214.399 143.814 214.399 143.814C214.399 143.814 214.399 143.814 214.399 143.814C214.399 143.814 214.399 143.814 216.255 143.069C218.111 142.324 218.111 142.324 218.111 142.324C218.111 142.324 218.111 142.324 218.111 142.324C218.111 142.324 218.111 142.324 218.111 142.324C218.111 142.323 218.111 142.323 218.111 142.323C218.111 142.322 218.11 142.322 218.11 142.321C218.109 142.319 218.108 142.316 218.107 142.313C218.104 142.306 218.1 142.295 218.094 142.282C218.084 142.255 218.068 142.216 218.047 142.164C218.005 142.061 217.942 141.907 217.86 141.707C217.695 141.305 217.451 140.714 217.13 139.949L213.442 141.497Z" fill="#8F00FF"/>
</svg>
