<svg width="220" height="157" viewBox="0 0 220 157" fill="none" xmlns="http://www.w3.org/2000/svg">
<path d="M1.25867 142.182C0.888115 141.772 0.919709 141.14 1.32923 140.769L8.00282 134.731C8.41234 134.36 9.04472 134.392 9.41527 134.802C9.78582 135.211 9.75422 135.843 9.3447 136.214L3.41263 141.582L8.78017 147.514C9.15072 147.923 9.11913 148.556 8.7096 148.926C8.30008 149.297 7.6677 149.265 7.29715 148.856L1.25867 142.182ZM138.81 118.603L139.356 119.44L138.81 118.603ZM2.00018 141.511C2.05007 140.512 2.05006 140.512 2.05005 140.512C2.05006 140.512 2.05005 140.512 2.05005 140.512C2.05006 140.512 2.05008 140.512 2.05012 140.512C2.05018 140.512 2.0503 140.512 2.05048 140.512C2.05082 140.512 2.05138 140.512 2.05216 140.512C2.0537 140.512 2.05609 140.513 2.05933 140.513C2.0658 140.513 2.07565 140.513 2.08885 140.514C2.11524 140.515 2.15502 140.517 2.20792 140.52C2.31374 140.525 2.47206 140.532 2.68086 140.54C3.09847 140.558 3.71798 140.582 4.5231 140.609L4.45592 142.608C3.64492 142.581 3.01976 142.557 2.59673 142.539C2.38522 142.53 2.22423 142.523 2.11581 142.518C2.0616 142.515 2.02053 142.513 1.99286 142.512C1.97902 142.511 1.96853 142.511 1.96143 142.51C1.95787 142.51 1.95516 142.51 1.9533 142.51C1.95237 142.51 1.95166 142.51 1.95115 142.51C1.9509 142.51 1.9507 142.51 1.95056 142.51C1.95048 142.51 1.95042 142.51 1.95038 142.51C1.95035 142.51 1.95033 142.51 1.95032 142.51C1.9503 142.51 1.95028 142.51 2.00018 141.511ZM9.48846 140.738C10.9744 140.767 12.6587 140.791 14.519 140.804L14.5042 142.804C12.6357 142.791 10.9436 142.766 9.45018 142.738L9.48846 140.738ZM19.5062 140.815C21.097 140.809 22.775 140.796 24.531 140.772L24.5582 142.772C22.7951 142.796 21.1102 142.809 19.5127 142.815L19.5062 140.815ZM29.5536 140.678C31.1696 140.639 32.8362 140.591 34.5478 140.533L34.6163 142.532C32.8975 142.59 31.224 142.639 29.6014 142.677L29.5536 140.678ZM39.5472 140.335C41.1824 140.262 42.8505 140.179 44.5472 140.084L44.6584 142.081C42.9543 142.176 41.2789 142.26 39.6367 142.333L39.5472 140.335ZM49.5454 139.778C51.1901 139.668 52.8562 139.547 54.5402 139.414L54.6974 141.408C53.0053 141.541 51.3314 141.663 49.6791 141.773L49.5454 139.778ZM59.5222 138.99C61.1688 138.84 62.8284 138.678 64.498 138.504L64.7058 140.493C63.0273 140.668 61.3589 140.831 59.704 140.982L59.5222 138.99ZM69.4683 137.95C71.1172 137.755 72.7725 137.547 74.4311 137.325L74.6958 139.308C73.027 139.53 71.3619 139.74 69.7036 139.936L69.4683 137.95ZM79.3838 136.624C81.0309 136.378 82.6783 136.117 84.3231 135.842L84.6531 137.815C82.9966 138.092 81.3379 138.354 79.68 138.602L79.3838 136.624ZM89.2451 134.972C90.8852 134.666 92.5197 134.345 94.1456 134.008L94.5519 135.966C92.9122 136.306 91.2645 136.63 89.6117 136.938L89.2451 134.972ZM99.0231 132.94C100.654 132.564 102.272 132.17 103.876 131.758L104.373 133.695C102.753 134.111 101.119 134.509 99.4729 134.889L99.0231 132.94ZM108.693 130.451C110.305 129.99 111.898 129.509 113.468 129.007L114.077 130.912C112.486 131.42 110.874 131.908 109.244 132.374L108.693 130.451ZM118.188 127.409C119.768 126.843 121.32 126.253 122.84 125.64L123.589 127.494C122.043 128.118 120.466 128.717 118.862 129.292L118.188 127.409ZM127.407 123.677C128.935 122.979 130.423 122.252 131.866 121.497L132.793 123.27C131.316 124.042 129.797 124.784 128.239 125.496L127.407 123.677ZM136.185 119.071C136.891 118.644 137.584 118.209 138.263 117.765L139.356 119.44C138.658 119.897 137.945 120.344 137.219 120.782L136.185 119.071ZM138.263 117.765C138.953 117.315 139.642 116.847 140.33 116.363L141.481 117.999C140.775 118.496 140.067 118.976 139.356 119.44L138.263 117.765ZM144.36 113.328C145.653 112.292 146.939 111.202 148.219 110.062L149.549 111.554C148.246 112.716 146.933 113.83 145.611 114.889L144.36 113.328ZM151.92 106.606C153.114 105.442 154.3 104.237 155.478 102.995L156.929 104.372C155.734 105.631 154.53 106.854 153.316 108.038L151.92 106.606ZM158.908 99.2537C160.021 97.9984 161.125 96.7133 162.22 95.4018L163.756 96.6836C162.648 98.0095 161.531 99.3097 160.404 100.581L158.908 99.2537ZM165.426 91.4554C166.472 90.1334 167.508 88.7898 168.534 87.4279L170.131 88.6312C169.096 90.0052 168.051 91.3613 166.995 92.6962L165.426 91.4554ZM171.551 83.3305C172.539 81.9588 173.516 80.5725 174.482 79.1745L176.128 80.3116C175.154 81.7198 174.17 83.1167 173.174 84.4994L171.551 83.3305ZM177.339 74.9612C178.279 73.5474 179.208 72.125 180.124 70.6973L181.807 71.7776C180.885 73.2141 179.951 74.6456 179.004 76.0689L177.339 74.9612ZM182.843 66.3887C183.742 64.9407 184.627 63.4903 185.499 62.0406L187.213 63.0711C186.336 64.5285 185.446 65.987 184.542 67.4433L182.843 66.3887ZM188.094 57.6573C188.956 56.1804 189.802 54.7077 190.633 53.2423L192.373 54.2286C191.538 55.7008 190.688 57.1808 189.822 58.665L188.094 57.6573ZM193.117 48.7984C193.947 47.2933 194.759 45.7999 195.552 44.322L197.314 45.268C196.518 46.7523 195.702 48.2522 194.868 49.7641L193.117 48.7984ZM197.94 39.8158C198.742 38.2825 199.523 36.7711 200.28 35.286L202.062 36.1947C201.301 37.6857 200.518 39.2033 199.712 40.7428L197.94 39.8158ZM202.572 30.7358C203.35 29.1724 204.099 27.6464 204.819 26.1637L206.618 27.037C205.896 28.5253 205.144 30.0572 204.363 31.6266L202.572 30.7358ZM207.03 21.5495C207.795 19.9338 208.517 18.386 209.196 16.9156L211.012 17.7533C210.331 19.2295 209.606 20.7833 208.838 22.4051L207.03 21.5495ZM211.299 12.2961C212.075 10.5669 212.768 8.99664 213.373 7.60838L215.207 8.40736C214.599 9.8021 213.903 11.3791 213.123 13.1155L211.299 12.2961ZM215.364 2.95924C215.681 2.20214 215.923 1.61809 216.084 1.22386C216.165 1.02675 216.226 0.877103 216.267 0.776988C216.287 0.72695 216.302 0.689276 216.312 0.664284C216.317 0.651769 216.321 0.642436 216.324 0.636288C216.325 0.633216 216.326 0.630939 216.326 0.629458C216.327 0.628728 216.327 0.628186 216.327 0.627864C216.327 0.627694 216.327 0.627583 216.327 0.627515C216.327 0.627482 216.327 0.627453 216.327 0.62745C216.327 0.627446 216.327 0.62745 216.327 0.62745C216.327 0.627453 216.327 0.627456 217.255 1.00001C218.183 1.37256 218.183 1.37257 218.183 1.37259C218.183 1.3726 218.183 1.37263 218.183 1.37264C218.183 1.3727 218.183 1.37274 218.183 1.37281C218.183 1.37295 218.183 1.37313 218.183 1.37336C218.183 1.37384 218.182 1.37451 218.182 1.3754C218.181 1.37713 218.18 1.37969 218.179 1.38304C218.176 1.38976 218.172 1.39965 218.167 1.41272C218.157 1.43887 218.141 1.47766 218.12 1.52886C218.079 1.63126 218.017 1.78326 217.935 1.98275C217.771 2.38175 217.528 2.97077 217.208 3.73301L215.364 2.95924ZM0.517158 142.853C-0.223945 142.034 -0.160758 140.769 0.658291 140.028L14.0055 127.951C14.8245 127.21 16.0893 127.273 16.8304 128.092C17.5715 128.911 17.5083 130.176 16.6892 130.917L4.82508 141.652L15.5602 153.516C16.3013 154.335 16.2381 155.6 15.419 156.341C14.6 157.082 13.3352 157.019 12.5941 156.2L0.517158 142.853ZM138.81 118.603L139.903 120.278L138.81 118.603ZM2.00018 141.511C2.09997 139.513 2.09995 139.513 2.09992 139.513C2.09992 139.513 2.0999 139.513 2.09989 139.513C2.09988 139.513 2.09988 139.513 2.0999 139.513C2.09992 139.513 2.10001 139.513 2.10014 139.513C2.10041 139.513 2.10089 139.514 2.10158 139.514C2.10297 139.514 2.1052 139.514 2.10828 139.514C2.11444 139.514 2.12397 139.515 2.13685 139.515C2.1626 139.517 2.20173 139.518 2.25398 139.521C2.35849 139.526 2.51548 139.533 2.72293 139.541C3.13782 139.559 3.7545 139.583 4.55669 139.61L4.42233 143.608C3.6084 143.58 2.98041 143.556 2.55467 143.538C2.34179 143.529 2.17948 143.522 2.06975 143.517C2.01489 143.514 1.97318 143.512 1.94486 143.511C1.9307 143.51 1.9199 143.509 1.91248 143.509C1.90876 143.509 1.9059 143.509 1.90388 143.509C1.90287 143.509 1.90207 143.509 1.90149 143.509C1.9012 143.509 1.90096 143.509 1.90078 143.509C1.90068 143.508 1.9006 143.508 1.90054 143.508C1.90051 143.508 1.90047 143.508 1.90045 143.508C1.90041 143.508 1.90038 143.508 2.00018 141.511ZM9.5076 139.738C10.9899 139.767 12.6702 139.791 14.5265 139.804L14.4968 143.804C12.6242 143.79 10.9281 143.766 9.43104 143.738L9.5076 139.738ZM19.503 139.815C21.0905 139.81 22.765 139.796 24.5174 139.772L24.5718 143.772C22.8051 143.796 21.1167 143.809 19.516 143.815L19.503 139.815ZM29.5297 139.678C31.1424 139.64 32.8056 139.592 34.5136 139.533L34.6505 143.531C32.9282 143.59 31.2512 143.638 29.6254 143.677L29.5297 139.678ZM39.5024 139.336C41.1342 139.263 42.7987 139.18 44.4916 139.086L44.714 143.08C43.0061 143.175 41.3271 143.259 39.6814 143.332L39.5024 139.336ZM49.4786 138.78C51.1195 138.67 52.7817 138.55 54.4616 138.417L54.776 142.405C53.0799 142.538 51.402 142.66 49.746 142.771L49.4786 138.78ZM59.4313 137.995C61.0737 137.845 62.729 137.683 64.3941 137.509L64.8097 141.488C63.1267 141.663 61.454 141.827 59.795 141.978L59.4313 137.995ZM69.3506 136.957C70.9948 136.762 72.6452 136.555 74.2988 136.334L74.8282 140.299C73.1543 140.522 71.4843 140.732 69.8213 140.929L69.3506 136.957ZM79.2358 135.635C80.8774 135.39 82.5191 135.13 84.1581 134.856L84.8181 138.801C83.1557 139.079 81.4914 139.342 79.8281 139.591L79.2358 135.635ZM89.0618 133.989C90.6956 133.684 92.3234 133.365 93.9424 133.029L94.7551 136.945C93.1085 137.287 91.4541 137.612 89.795 137.921L89.0618 133.989ZM98.7983 131.966C100.421 131.591 102.032 131.199 103.627 130.79L104.622 134.664C102.994 135.082 101.351 135.482 99.6978 135.863L98.7983 131.966ZM108.418 129.49C110.021 129.031 111.603 128.553 113.163 128.054L114.381 131.864C112.781 132.376 111.159 132.866 109.519 133.336L108.418 129.49ZM117.85 126.468C119.419 125.906 120.959 125.321 122.466 124.712L123.963 128.422C122.404 129.051 120.815 129.654 119.2 130.233L117.85 126.468ZM126.991 122.768C128.504 122.076 129.976 121.357 131.403 120.611L133.256 124.156C131.763 124.937 130.228 125.686 128.656 126.405L126.991 122.768ZM135.668 118.215C136.364 117.794 137.048 117.365 137.717 116.928L139.903 120.278C139.194 120.74 138.472 121.194 137.737 121.638L135.668 118.215ZM137.717 116.928C138.397 116.484 139.076 116.023 139.754 115.546L142.057 118.816C141.342 119.32 140.624 119.807 139.903 120.278L137.717 116.928ZM143.735 112.548C145.013 111.523 146.286 110.444 147.553 109.315L150.215 112.301C148.899 113.474 147.573 114.598 146.236 115.669L143.735 112.548ZM151.221 105.89C152.406 104.735 153.583 103.539 154.753 102.307L157.654 105.06C156.451 106.328 155.238 107.561 154.014 108.754L151.221 105.89ZM158.16 98.5903C159.266 97.3428 160.364 96.0652 161.453 94.7609L164.523 97.3245C163.41 98.6577 162.286 99.9654 161.152 101.244L158.16 98.5903ZM164.642 90.835C165.682 89.5195 166.714 88.1822 167.735 86.8262L170.93 89.2328C169.891 90.6128 168.84 91.9752 167.779 93.3166L164.642 90.835ZM170.739 82.7461C171.723 81.3799 172.697 79.9988 173.66 78.6059L176.95 80.8802C175.974 82.2934 174.985 83.6957 173.985 85.0839L170.739 82.7461ZM176.506 74.4074C177.443 72.9982 178.369 71.5805 179.283 70.1572L182.649 72.3177C181.724 73.7587 180.786 75.1947 179.836 76.6228L176.506 74.4074ZM181.993 65.8614C182.889 64.4175 183.772 62.9711 184.642 61.5253L188.07 63.5864C187.191 65.0477 186.298 66.5102 185.392 67.9707L181.993 65.8614ZM187.23 57.1534C188.09 55.6802 188.934 54.2111 189.763 52.7492L193.243 54.7217C192.406 56.1974 191.554 57.681 190.686 59.1689L187.23 57.1534ZM192.241 48.3156C193.069 46.8138 193.879 45.3237 194.671 43.849L198.195 45.741C197.397 47.2285 196.579 48.7317 195.744 50.247L192.241 48.3156ZM197.054 39.3522C197.855 37.8221 198.633 36.3138 199.389 34.8317L202.953 36.6491C202.191 38.143 201.406 39.6636 200.598 41.2064L197.054 39.3522ZM201.677 30.2904C202.453 28.73 203.201 27.207 203.919 25.7271L207.518 27.4736C206.794 28.9648 206.04 30.4996 205.258 32.072L201.677 30.2904ZM206.126 21.1217C206.89 19.5091 207.611 17.9643 208.288 16.4967L211.92 18.1722C211.238 19.6513 210.511 21.208 209.742 22.8329L206.126 21.1217ZM210.386 11.8865C211.161 10.1608 211.853 8.59391 212.457 7.20888L216.124 8.80686C215.514 10.2048 214.817 11.7853 214.035 13.5251L210.386 11.8865ZM214.442 2.57236C214.758 1.81782 214.999 1.23625 215.159 0.84441C215.24 0.648492 215.3 0.500015 215.34 0.401062C215.36 0.351587 215.375 0.314499 215.385 0.290044C215.39 0.277827 215.394 0.268765 215.396 0.262895C215.397 0.259963 215.398 0.257832 215.399 0.256499C215.399 0.255829 215.399 0.255364 215.399 0.255102C215.399 0.254968 215.399 0.254885 215.399 0.254857C215.399 0.254843 215.399 0.25484 215.399 0.254846C215.399 0.254849 215.399 0.254864 215.399 0.254867C215.399 0.254893 215.399 0.254914 217.255 1.00001C219.111 1.74511 219.111 1.74513 219.111 1.74516C219.111 1.74519 219.111 1.74522 219.111 1.74525C219.111 1.7453 219.111 1.74537 219.111 1.74547C219.111 1.74564 219.111 1.74585 219.111 1.74613C219.111 1.74667 219.11 1.74741 219.11 1.74836C219.109 1.75024 219.108 1.75294 219.107 1.75643C219.104 1.76342 219.1 1.77361 219.094 1.78696C219.084 1.81366 219.068 1.85302 219.047 1.9048C219.005 2.00835 218.942 2.16151 218.86 2.3622C218.695 2.76357 218.451 3.35507 218.13 4.11989L214.442 2.57236Z" fill="#8F00FF"/>
</svg>
