<svg width="228" height="146" viewBox="0 0 228 146" fill="none" xmlns="http://www.w3.org/2000/svg">
<path d="M85.0581 32.9862L84.5581 32.1202L85.0581 32.9862ZM226.06 16.9164C226.483 16.5614 226.538 15.9306 226.183 15.5076L220.397 8.61397C220.042 8.19095 219.411 8.13585 218.988 8.49091C218.565 8.84598 218.51 9.47673 218.865 9.89976L224.008 16.0274L217.881 21.1706C217.458 21.5256 217.403 22.1564 217.758 22.5794C218.113 23.0024 218.743 23.0575 219.166 22.7025L226.06 16.9164ZM2.79967 144.679C3.71318 145.086 3.71317 145.086 3.71317 145.086C3.71317 145.086 3.71317 145.086 3.71317 145.086C3.71317 145.086 3.71318 145.086 3.71319 145.086C3.71322 145.085 3.71327 145.085 3.71334 145.085C3.71348 145.085 3.71371 145.084 3.71403 145.084C3.71466 145.082 3.71563 145.08 3.71695 145.077C3.71959 145.071 3.72362 145.062 3.72901 145.05C3.73981 145.026 3.7561 144.99 3.77783 144.941C3.8213 144.845 3.88651 144.7 3.97303 144.51C4.14606 144.13 4.40426 143.566 4.74395 142.835L2.93045 141.992C2.58828 142.728 2.32772 143.297 2.15244 143.682C2.0648 143.875 1.99849 144.022 1.95395 144.121C1.93169 144.17 1.91486 144.208 1.90355 144.233C1.89788 144.246 1.8936 144.255 1.8907 144.262C1.88925 144.265 1.88815 144.267 1.88739 144.269C1.88701 144.27 1.88672 144.271 1.88651 144.271C1.88641 144.271 1.88633 144.272 1.88627 144.272C1.88624 144.272 1.88621 144.272 1.88619 144.272C1.88619 144.272 1.88617 144.272 1.88617 144.272C1.88616 144.272 1.88615 144.272 2.79967 144.679ZM6.87286 138.348C7.51897 137.009 8.25872 135.496 9.08706 133.83L7.29625 132.94C6.46427 134.613 5.72108 136.133 5.07174 137.478L6.87286 138.348ZM11.3316 129.377C12.0551 127.96 12.8253 126.469 13.6401 124.913L11.8684 123.985C11.0503 125.547 10.2769 127.044 9.55041 128.467L11.3316 129.377ZM15.9939 120.475C16.7586 119.051 17.5544 117.586 18.3802 116.086L16.628 115.122C15.7988 116.628 14.9997 118.099 14.2318 119.529L15.9939 120.475ZM20.8154 111.715C21.6197 110.29 22.4478 108.839 23.2988 107.368L21.5677 106.367C20.7129 107.844 19.8812 109.301 19.0735 110.733L20.8154 111.715ZM25.8308 103.048C26.6723 101.631 27.5332 100.199 28.4126 98.7568L26.705 97.7156C25.8213 99.1647 24.9564 100.603 24.1111 102.027L25.8308 103.048ZM31.0417 94.5038C31.9198 93.1029 32.8143 91.6955 33.7243 90.285L32.0437 89.2007C31.1288 90.6188 30.2297 92.0335 29.3471 93.4416L31.0417 94.5038ZM36.4643 86.1013C37.3837 84.7186 38.3173 83.336 39.2644 81.9564L37.6156 80.8245C36.6627 82.2125 35.7235 83.6033 34.7989 84.9939L36.4643 86.1013ZM42.1277 77.855C43.092 76.4971 44.0689 75.1453 45.0576 73.8023L43.447 72.6166C42.4513 73.9691 41.4677 75.3302 40.4971 76.697L42.1277 77.855ZM48.0577 69.8046C49.0717 68.4797 50.0968 67.1668 51.1325 65.8688L49.5692 64.6214C48.5247 65.9304 47.4913 67.2539 46.4695 68.5891L48.0577 69.8046ZM54.2892 62.0002C55.3617 60.7157 56.4443 59.4498 57.5363 58.2055L56.0331 56.8863C54.9298 58.1435 53.8365 59.4219 52.754 60.7183L54.2892 62.0002ZM60.879 54.4982C62.0189 53.2688 63.1678 52.0656 64.325 50.8919L62.9008 49.4878C61.7286 50.6767 60.5655 51.8947 59.4124 53.1383L60.879 54.4982ZM67.8833 47.4033C69.1027 46.2495 70.3299 45.1313 71.5641 44.0525L70.2479 42.5467C68.9928 43.6438 67.7461 44.7797 66.5087 45.9506L67.8833 47.4033ZM75.3786 40.8649C76.6923 39.818 78.0126 38.8192 79.3383 37.8726L78.1762 36.2449C76.82 37.2132 75.4717 38.2334 74.1322 39.3008L75.3786 40.8649ZM83.4546 35.1165C84.1547 34.6793 84.8559 34.2577 85.5581 33.8523L84.5581 32.1202C83.8353 32.5376 83.1142 32.9711 82.3952 33.4201L83.4546 35.1165ZM85.5581 33.8523C86.2719 33.4402 87.0004 33.0369 87.7429 32.6423L86.8044 30.8762C86.0419 31.2814 85.2929 31.696 84.5581 32.1202L85.5581 33.8523ZM92.2717 30.4184C93.7801 29.7333 95.3341 29.0785 96.9293 28.4527L96.1989 26.5908C94.5733 27.2285 92.987 27.8969 91.4447 28.5974L92.2717 30.4184ZM101.684 26.7125C103.263 26.1736 104.874 25.6597 106.514 25.1698L105.941 23.2535C104.278 23.7503 102.642 24.272 101.038 24.8198L101.684 26.7125ZM111.401 23.8011C113.024 23.3753 114.669 22.9709 116.334 22.5867L115.884 20.6379C114.201 21.0263 112.536 21.4355 110.894 21.8665L111.401 23.8011ZM121.303 21.5102C122.955 21.1747 124.622 20.8576 126.3 20.5579L125.949 18.589C124.256 18.8913 122.573 19.2114 120.905 19.5502L121.303 21.5102ZM131.319 19.718C132.989 19.4565 134.667 19.2111 136.351 18.9809L136.08 16.9993C134.384 17.2312 132.693 17.4785 131.01 17.7421L131.319 19.718ZM141.4 18.3369C143.087 18.1368 144.775 17.9511 146.463 17.7788L146.26 15.7891C144.562 15.9625 142.862 16.1494 141.165 16.3508L141.4 18.3369ZM151.535 17.3004C153.233 17.1531 154.927 17.0187 156.614 16.8962L156.469 14.9015C154.773 15.0246 153.07 15.1597 151.362 15.3079L151.535 17.3004ZM161.697 16.5615C163.404 16.4604 165.1 16.3709 166.783 16.2921L166.689 14.2943C164.999 14.3734 163.294 14.4634 161.579 14.5651L161.697 16.5615ZM171.87 16.0842C173.587 16.024 175.286 15.9744 176.963 15.9345L176.916 13.935C175.232 13.9752 173.525 14.0249 171.8 14.0854L171.87 16.0842ZM182.062 15.8405C183.793 15.8178 185.494 15.8048 187.161 15.8001L187.155 13.8001C185.481 13.8048 183.774 13.8179 182.036 13.8406L182.062 15.8405ZM192.256 15.8116C194.002 15.8242 195.702 15.8454 197.349 15.8735L197.383 13.8738C195.729 13.8456 194.023 13.8243 192.27 13.8117L192.256 15.8116ZM202.465 15.9858C204.252 16.0337 205.959 16.0887 207.577 16.148L207.651 14.1494C206.026 14.0898 204.312 14.0346 202.519 13.9865L202.465 15.9858ZM212.649 16.3595C214.542 16.4482 216.256 16.5395 217.768 16.6272L217.884 14.6306C216.365 14.5425 214.643 14.4508 212.742 14.3617L212.649 16.3595ZM222.815 16.9525C223.634 17.0112 224.264 17.0599 224.688 17.0938C224.901 17.1107 225.062 17.124 225.169 17.133C225.223 17.1375 225.264 17.141 225.291 17.1433C225.304 17.1444 225.314 17.1453 225.321 17.1459C225.324 17.1461 225.326 17.1463 225.328 17.1465C225.329 17.1466 225.329 17.1466 225.33 17.1466C225.33 17.1466 225.33 17.1467 225.33 17.1467C225.33 17.1467 225.33 17.1467 225.33 17.1467C225.33 17.1467 225.33 17.1467 225.33 17.1467C225.33 17.1467 225.33 17.1467 225.417 16.1505C225.504 15.1543 225.504 15.1543 225.504 15.1543C225.504 15.1543 225.504 15.1543 225.504 15.1542C225.504 15.1542 225.504 15.1542 225.504 15.1542C225.504 15.1542 225.504 15.1542 225.503 15.1542C225.503 15.1541 225.502 15.1541 225.501 15.154C225.499 15.1538 225.497 15.1536 225.493 15.1533C225.486 15.1527 225.475 15.1517 225.461 15.1505C225.433 15.1481 225.391 15.1446 225.336 15.14C225.226 15.1308 225.063 15.1173 224.848 15.1001C224.418 15.0658 223.782 15.0167 222.958 14.9576L222.815 16.9525ZM85.0581 32.9862L84.0581 31.2542L85.0581 32.9862ZM226.703 17.6824C227.549 16.9723 227.659 15.7107 226.949 14.8647L215.377 1.07749C214.667 0.231433 213.405 0.121239 212.559 0.831365C211.713 1.54148 211.603 2.80301 212.313 3.64906L222.599 15.9043L210.344 26.1906C209.498 26.9008 209.388 28.1623 210.098 29.0083C210.808 29.8544 212.07 29.9646 212.916 29.2545L226.703 17.6824ZM2.79967 144.679C4.62669 145.492 4.62668 145.492 4.62667 145.492C4.62667 145.492 4.62666 145.492 4.62666 145.492C4.62665 145.492 4.62665 145.492 4.62666 145.492C4.62667 145.492 4.6267 145.492 4.62676 145.492C4.62687 145.492 4.62706 145.492 4.62734 145.491C4.62791 145.49 4.62882 145.488 4.63008 145.485C4.63259 145.479 4.63648 145.47 4.64175 145.459C4.65228 145.435 4.66831 145.399 4.68977 145.352C4.7327 145.256 4.79737 145.113 4.88332 144.924C5.05523 144.546 5.31225 143.985 5.6507 143.257L2.0237 141.57C1.68029 142.309 1.41855 142.88 1.24215 143.268C1.15395 143.462 1.08708 143.61 1.04201 143.71C1.01948 143.76 1.00239 143.799 0.99081 143.824C0.98502 143.837 0.980606 143.847 0.977575 143.854C0.97606 143.857 0.974891 143.86 0.974068 143.862C0.973656 143.863 0.973332 143.864 0.973095 143.864C0.972976 143.864 0.972879 143.865 0.972803 143.865C0.972766 143.865 0.972734 143.865 0.972707 143.865C0.972693 143.865 0.972677 143.865 0.972671 143.865C0.972655 143.865 0.972642 143.865 2.79967 144.679ZM7.77341 138.783C8.41792 137.447 9.15595 135.938 9.98246 134.276L6.40084 132.495C5.56704 134.171 4.82213 135.695 4.17118 137.044L7.77341 138.783ZM12.2222 129.831C12.9442 128.418 13.7128 126.93 14.526 125.377L10.9826 123.521C10.1628 125.087 9.38781 126.587 8.65981 128.012L12.2222 129.831ZM16.8749 120.949C17.638 119.527 18.4322 118.065 19.2562 116.568L15.7519 114.639C14.921 116.149 14.1202 117.623 13.3508 119.056L16.8749 120.949ZM21.6864 112.207C22.489 110.784 23.3153 109.337 24.1644 107.869L20.7021 105.866C19.8455 107.347 19.012 108.806 18.2025 110.241L21.6864 112.207ZM26.6907 103.558C27.5302 102.144 28.3891 100.716 29.2664 99.2774L25.8512 97.1949C24.9654 98.6476 24.0985 100.089 23.2512 101.516L26.6907 103.558ZM31.889 95.0349C32.7649 93.6375 33.657 92.2339 34.5646 90.8271L31.2034 88.6586C30.2861 90.0805 29.3846 91.4989 28.4998 92.9104L31.889 95.0349ZM37.297 86.655C38.2138 85.2763 39.1446 83.8978 40.0888 82.5224L36.7912 80.2585C35.8354 81.6507 34.8935 83.0456 33.9662 84.4401L37.297 86.655ZM42.9431 78.434C43.9042 77.0806 44.8777 75.7334 45.8629 74.3952L42.6417 72.0237C41.6425 73.381 40.6556 74.7467 39.6818 76.118L42.9431 78.434ZM48.8519 70.4123C49.8619 69.0926 50.8829 67.785 51.9142 66.4925L48.7875 63.9977C47.7387 65.3122 46.7011 66.6411 45.6753 67.9814L48.8519 70.4123ZM55.0568 62.6411C56.1243 61.3627 57.2016 60.103 58.2879 58.8651L55.2815 56.2267C54.1725 57.4903 53.0739 58.775 51.9864 60.0774L55.0568 62.6411ZM61.6123 55.1781C62.7456 53.9558 63.8874 52.7601 65.0371 51.594L62.1887 48.7857C61.0089 49.9823 59.8388 51.2077 58.6791 52.4584L61.6123 55.1781ZM68.5707 48.1296C69.781 46.9843 70.9985 45.8751 72.2222 44.8055L69.5898 41.7937C68.3242 42.9 67.0678 44.0448 65.8214 45.2243L68.5707 48.1296ZM76.0018 41.647C77.3027 40.6103 78.6089 39.6222 79.9194 38.6864L77.5951 35.4311C76.2238 36.4102 74.8614 37.441 73.509 38.5188L76.0018 41.647ZM83.9843 35.9647C84.6749 35.5334 85.3663 35.1177 86.0581 34.7183L84.0581 31.2542C83.3249 31.6775 82.594 32.117 81.8655 32.572L83.9843 35.9647ZM86.0581 34.7183C86.7614 34.3123 87.4796 33.9147 88.2122 33.5254L86.3351 29.9931C85.5626 30.4036 84.8034 30.8239 84.0581 31.2542L86.0581 34.7183ZM92.6852 31.3289C94.1767 30.6515 95.7145 30.0034 97.2945 29.3836L95.8338 25.6599C94.193 26.3035 92.5904 26.9787 91.0311 27.6869L92.6852 31.3289ZM102.007 27.6589C103.573 27.1243 105.172 26.6144 106.8 26.128L105.655 22.2953C103.98 22.7956 102.332 23.3213 100.715 23.8734L102.007 27.6589ZM111.655 24.7683C113.267 24.3453 114.903 23.9431 116.559 23.5611L115.66 19.6635C113.967 20.054 112.293 20.4656 110.64 20.8992L111.655 24.7683ZM121.502 22.4902C123.146 22.1563 124.805 21.8407 126.476 21.5423L125.773 17.6046C124.072 17.9082 122.382 18.2298 120.706 18.5702L121.502 22.4902ZM131.474 20.706C133.137 20.4455 134.809 20.201 136.487 19.9717L135.945 16.0085C134.243 16.2413 132.545 16.4895 130.855 16.7541L131.474 20.706ZM141.518 19.3299C143.199 19.1305 144.882 18.9454 146.564 18.7736L146.158 14.7943C144.455 14.9682 142.75 15.1557 141.047 15.3578L141.518 19.3299ZM151.621 18.2967C153.314 18.1498 155.004 18.0157 156.686 17.8936L156.397 13.9041C154.696 14.0275 152.988 14.163 151.276 14.3116L151.621 18.2967ZM161.756 17.5598C163.459 17.4589 165.151 17.3696 166.829 17.291L166.642 13.2954C164.948 13.3747 163.239 13.4649 161.52 13.5668L161.756 17.5598ZM171.905 17.0835C173.618 17.0235 175.314 16.9741 176.987 16.9342L176.892 12.9353C175.204 12.9755 173.494 13.0254 171.765 13.086L171.905 17.0835ZM182.076 16.8404C183.802 16.8178 185.5 16.8048 187.163 16.8001L187.152 12.8001C185.475 12.8048 183.764 12.8179 182.023 12.8407L182.076 16.8404ZM192.248 16.8116C193.991 16.8242 195.688 16.8453 197.332 16.8734L197.401 12.874C195.743 12.8457 194.034 12.8244 192.277 12.8117L192.248 16.8116ZM202.438 16.9854C204.222 17.0333 205.926 17.0881 207.541 17.1474L207.687 13.15C206.06 13.0903 204.343 13.0351 202.545 12.9868L202.438 16.9854ZM212.602 17.3584C214.491 17.4469 216.202 17.5381 217.71 17.6255L217.941 13.6322C216.419 13.544 214.694 13.452 212.789 13.3628L212.602 17.3584ZM222.743 17.9499C223.559 18.0084 224.187 18.0569 224.609 18.0906C224.82 18.1075 224.98 18.1206 225.086 18.1295C225.139 18.134 225.179 18.1374 225.205 18.1396C225.219 18.1408 225.228 18.1416 225.235 18.1421C225.238 18.1424 225.24 18.1426 225.241 18.1427C225.242 18.1428 225.243 18.1428 225.243 18.1429C225.243 18.1429 225.243 18.1429 225.243 18.1429C225.243 18.1429 225.243 18.1429 225.243 18.1429C225.243 18.1429 225.243 18.1429 225.243 18.1429C225.243 18.1429 225.243 18.1429 225.417 16.1505C225.591 14.1581 225.591 14.158 225.591 14.158C225.591 14.158 225.591 14.158 225.591 14.158C225.591 14.158 225.591 14.158 225.591 14.158C225.591 14.158 225.59 14.158 225.59 14.158C225.59 14.1579 225.589 14.1578 225.588 14.1578C225.586 14.1576 225.583 14.1573 225.579 14.157C225.572 14.1564 225.561 14.1554 225.546 14.1542C225.518 14.1517 225.475 14.1481 225.42 14.1435C225.308 14.1342 225.143 14.1206 224.927 14.1033C224.495 14.0688 223.857 14.0195 223.029 13.9601L222.743 17.9499Z" fill="#8F00FF"/>
</svg>
