<svg width="79" height="79" viewBox="0 0 79 79" fill="none" xmlns="http://www.w3.org/2000/svg">
<path d="M56.0115 5.05516C57.2782 5.05516 58.4475 5.42055 59.4706 6.02953C60.0308 6.39492 73.5746 15.5297 73.6234 32.021C73.6234 39.6796 70.6954 45.9448 67.5701 50.4464C66.21 53.377 64.4651 56.1132 62.3815 58.5824L62.3766 58.5897C60.9518 60.2695 59.4057 61.8424 57.7508 63.296C56.2448 64.7323 54.6361 66.0569 52.9374 67.2593C45.1278 72.8254 35.7397 75.6973 26.1957 75.6973H7.73125C5.04685 75.6973 2.85938 73.5099 2.85938 70.8255V48.902C2.85938 46.2176 5.04685 44.0302 7.73125 44.0302H18.5955C21.163 44.0302 23.521 42.666 24.7901 40.4542L24.795 40.442L37.742 18.1776C38.7906 16.277 40.4697 14.802 42.4896 14.0072C43.2326 9.29856 47.6124 5.84684 52.2236 6.27556C53.3262 5.47984 54.6519 5.05272 56.0115 5.05516ZM53.41 11.6882C50.7475 10.0878 47.0302 12.2485 47.2616 15.7075L47.2738 15.9073C47.9949 16.0412 48.711 16.297 49.3858 16.6746C50.3091 17.1825 51.1056 17.8926 51.7156 18.7519C52.3256 19.6112 52.7333 20.5974 52.9081 21.6366L54.5037 23.8484C57.115 27.4658 58.4718 31.4412 58.4718 35.6505C58.4718 36.1572 58.4475 36.6346 58.4231 37.0634L58.4182 37.1754L58.4158 37.2095C57.97 42.7635 53.2833 46.9776 47.7537 46.9776C46.7338 46.974 45.7326 46.7042 44.8489 46.195C43.9652 45.6859 43.2296 44.9549 42.715 44.0744C42.2003 43.1939 41.9243 42.1944 41.9143 41.1745C41.9042 40.1547 42.1605 39.1499 42.6577 38.2594C43.5468 36.6517 44.4554 35.1122 45.3494 33.6068C47.1813 30.5131 48.9351 27.5535 50.2627 24.3746L50.2798 24.3356L50.3869 24.0774C50.6767 23.0824 50.6189 22.0184 50.223 21.0606C49.8272 20.1029 49.1169 19.3085 48.2092 18.8085L48.197 18.8012C47.3255 18.3024 46.3078 18.1216 45.3178 18.2896L44.6089 18.4211C43.4926 18.7628 42.5545 19.5279 41.9951 20.5526L41.983 20.5769L29.0116 42.8853C27.9583 44.716 26.4406 46.2363 24.6118 47.2928C22.7829 48.3492 20.7076 48.9043 18.5955 48.902H7.73125V70.8255H26.1957C34.7702 70.8255 43.1644 68.2434 50.1166 63.2887L50.1287 63.2789C51.6468 62.2017 53.0846 61.0156 54.4306 59.7298L54.4671 59.6957L54.5037 59.6616C55.9909 58.3586 57.3799 56.9476 58.6594 55.4401C69.9621 42.0302 68.3398 21.678 53.41 11.6906V11.6882ZM49.3249 36.4617C48.4772 37.8989 47.6514 39.2923 46.9133 40.6272L46.906 40.6442L46.8962 40.6588C46.8176 40.7949 46.7772 40.9498 46.7793 41.107C46.7793 41.6722 47.2348 42.1058 47.7537 42.1058C50.7889 42.1058 53.3052 39.8062 53.5561 36.8514V36.8441C53.5805 36.3862 53.6 36.0257 53.6 35.6505C53.6 33.9308 53.2979 32.2451 52.6743 30.596C51.6098 32.6007 50.4454 34.569 49.3249 36.4641V36.4617Z" fill="#8F00FF"/>
</svg>
