<svg width="60" height="50" viewBox="0 0 60 50" fill="none" xmlns="http://www.w3.org/2000/svg">
<path d="M27.0573 33.0122L27.0573 33.0122L27.0501 33.005L11.9021 17.9817C11.902 17.9816 11.9019 17.9815 11.9018 17.9813C11.6202 17.7014 11.4892 17.3518 11.5007 17.0138C11.5123 16.6752 11.6677 16.3296 11.9728 16.0627C12.2814 15.7927 12.713 15.6331 13.1751 15.6468C13.6371 15.6605 14.0532 15.845 14.3386 16.1286L14.3387 16.1287L27.181 28.8862L28.2521 29.9503L29.3091 28.8722L55.5236 2.13661L55.5575 2.10206L55.5891 2.06539C55.72 1.91334 55.8887 1.7813 56.0887 1.68266C56.2888 1.58393 56.513 1.52234 56.747 1.50502C56.9811 1.4877 57.2153 1.5154 57.434 1.58485C57.6526 1.65426 57.847 1.76259 58.0075 1.89803C58.1677 2.03328 58.2896 2.1917 58.3718 2.35979C58.4538 2.52751 58.4959 2.70427 58.4997 2.88009C58.5035 3.05589 58.4689 3.23329 58.3948 3.40261C58.3205 3.57232 58.2064 3.73376 58.0535 3.87367L58.0233 3.90126L57.9947 3.93045L29.5047 32.9909L29.498 32.9978C29.3545 33.1461 29.1735 33.2713 28.9631 33.36C28.7547 33.4478 28.5255 33.4963 28.2904 33.5H28.2716C28.0359 33.499 27.8055 33.4529 27.5953 33.367C27.3847 33.2809 27.2026 33.1583 27.0573 33.0122Z" stroke="#8F00FF" stroke-width="3"/>
<path d="M47.9125 27.0046C47.4999 31.7203 45.6423 36.1939 42.5932 39.8148C39.5441 43.4358 35.452 46.0277 30.8753 47.2369C26.2986 48.4462 21.4602 48.2138 17.0205 46.5714C12.5807 44.9291 8.75589 41.9569 6.06786 38.0604C3.37983 34.1639 1.95957 29.5329 2.00088 24.7993C2.04219 20.0657 3.54306 15.4602 6.29868 11.6112C9.05431 7.76215 12.9305 4.85715 17.3982 3.29258C21.8659 1.72801 26.7075 1.58008 31.2624 2.86899" stroke="#8F00FF" stroke-width="4"/>
</svg>
