<svg width="31" height="31" viewBox="0 0 31 31" fill="none" xmlns="http://www.w3.org/2000/svg">
<g clip-path="url(#clip0_117_1384)">
<path d="M22.5523 20.1219C26.3094 18.1945 29.1575 16.7258 29.403 16.6116C30.1883 16.2214 30.9994 15.1887 29.403 14.3865C28.8876 14.1342 26.1126 12.7113 22.5523 10.8762L17.6167 15.5333L22.5523 20.1218V20.1219Z" fill="#FFD900"/>
<path d="M17.6169 15.5337L1.90137 30.3321C2.27025 30.3777 2.6867 30.2863 3.17769 30.0341C4.20851 29.507 15.1362 23.9313 22.5525 20.1233L17.6169 15.5337Z" fill="#F43249"/>
<path d="M17.6169 15.5335L22.5525 10.8994C22.5525 10.8994 4.28306 1.58396 3.1777 1.03406C2.76124 0.803611 2.29456 0.735158 1.87695 0.803611L17.6169 15.5335Z" fill="#00EE76"/>
<path d="M17.6168 15.5339L1.87687 0.803955C1.23808 0.941943 0.698242 1.46924 0.698242 2.54763V28.5886C0.698242 29.5756 1.11597 30.2865 1.9013 30.3551L17.6168 15.5339Z" fill="#00D3FF"/>
</g>
<defs>
<clipPath id="clip0_117_1384">
<rect width="29.6307" height="29.6307" fill="white" transform="translate(0.698242 0.77832)"/>
</clipPath>
</defs>
</svg>
