<svg width="34" height="37" viewBox="0 0 34 37" fill="none" xmlns="http://www.w3.org/2000/svg">
<path d="M17.477 11.0684C15.8965 11.0684 13.45 9.47147 10.8736 9.52918C7.47444 9.56766 4.35676 11.28 2.60307 13.9928C-0.925976 19.4377 1.69374 27.4799 5.13618 31.905C6.82492 34.0599 8.81678 36.4841 11.4581 36.4071C13.9913 36.3109 14.9439 34.9449 18.0183 34.9449C21.071 34.9449 21.937 36.4071 24.6217 36.3494C27.3497 36.3109 29.0817 34.1561 30.7488 31.982C32.6757 29.4808 33.4768 27.0566 33.5201 26.9219C33.4551 26.9027 28.2157 25.1134 28.1507 19.7263C28.1074 15.2242 32.286 13.0693 32.4808 12.9731C30.0993 9.8755 26.4403 9.52918 25.1629 9.45223C21.8288 9.22135 19.0358 11.0684 17.477 11.0684ZM23.1061 6.52778C24.5134 5.02708 25.4444 2.92995 25.1846 0.852051C23.1711 0.92901 20.7462 2.04492 19.2956 3.54562C17.9966 4.87316 16.8708 7.00877 17.1739 9.04819C19.4039 9.20211 21.6989 8.02848 23.1061 6.52778Z" fill="white"/>
</svg>
